<svg xmlns="http://www.w3.org/2000/svg" viewBox="0 0 960 600" width="960" height="600">
<defs>
<linearGradient id="fundo" x1="0" y1="0" x2="0" y2="1"><stop offset="0" stop-color="#111316"/><stop offset="1" stop-color="#08090a"/></linearGradient>
<radialGradient id="brilho" cx="70%" cy="30%" r="75%"><stop offset="0" stop-color="#c69c5d" stop-opacity=".26"/><stop offset=".62" stop-color="#c69c5d" stop-opacity="0"/></radialGradient>
<pattern id="pontos" width="24" height="24" patternUnits="userSpaceOnUse"><circle cx="2" cy="2" r="1.2" fill="#f4f1ec" fill-opacity=".07"/></pattern>
</defs>
<rect width="960" height="600" fill="url(#fundo)"/>
<rect width="960" height="600" fill="url(#pontos)"/>
<rect width="960" height="600" fill="url(#brilho)"/>
<path d="M80 480H880" stroke="#f4f1ec" stroke-opacity=".16" stroke-width="2"/>
<g fill="none" stroke-width="3" stroke-linecap="round" stroke-linejoin="round">

<rect x="130" y="110" width="210" height="230" rx="8" stroke="#f4f1ec" stroke-opacity=".38"/>
<path d="M235 110V340M130 225H340" stroke="#f4f1ec" stroke-opacity=".38"/>
<circle cx="290" cy="170" r="26" stroke="#c69c5d" fill="#c69c5d" fill-opacity=".18"/>
<path d="M500 360V250a40 40 0 0 1 40-40h120a40 40 0 0 1 40 40v110" stroke="#c69c5d" fill="#c69c5d" fill-opacity=".07"/>
<path d="M470 440V340a25 25 0 0 1 50 0v100M680 440V340a25 25 0 0 1 50 0v100" stroke="#c69c5d"/>
<path d="M520 392h160M470 440h260M492 440v40M708 440v40" stroke="#c69c5d"/>
<path d="M760 150c20-25 50-25 50 0s-30 25-50 0-30-25-50 0 30 25 50 0z" stroke="#c69c5d"/>
<path d="M80 540H330l18-34 24 62 20-46 14 18H880" stroke="#c69c5d" stroke-opacity=".7"/>

</g>
</svg>
